<svg id="Layer_1" xmlns="http://www.w3.org/2000/svg" viewBox="0 0 266 266"><style>.bg{fill:#F2F2F2;} .cheeks{opacity:0.25;fill:#CECCCC;} .face{fill:#CECCCC;}</style><path class="bg" d="M0 0h266v266H0z"/><circle class="cheeks" cx="69.3" cy="154.5" r="15.8"/><circle class="cheeks" cx="197.7" cy="154.5" r="15.8"/><circle class="face eye" cx="94" cy="141.8" r="9.7"/><circle class="face eye" cx="172.8" cy="141.8" r="9.7"/><path class="face mouth" d="M97 167.8c10.4 9.1 22.7 14.3 36.4 14.3s26-5.3 36.4-14.3H97z"/><path class="face" d="M231.4 133.1c0-.2 0-.2 0 0V130v.2c-1.5-52.9-45-95.4-98.4-95.4s-96.7 42.5-98.4 95.4v-.2 73.5h29.7c17.8 17.3 42 28 68.7 28s50.9-10.7 68.7-28h29.7v-70.4zm-178.3-.2c0-9.9 1.8-19.4 5.1-28.2 2.1.2 4.8.3 7.7.2 6.1-.2 11.9-.7 17.1-1.6 4-2.5 8.4-5.6 11.7-8.9 8.9-8.9 12.5-17.5 12.5-17.5s.3 10.7-10.1 22.6c21.8-7.6 35.3-21.8 43.3-33.1 9.6 14 29 33 64.6 33.6h.3c4.6 10.1 7.1 21.1 7.1 32.8 0 44-35.9 79.9-79.9 79.9s-79.4-35.6-79.4-79.8z"/></svg>
