<svg id="Layer_1" xmlns="http://www.w3.org/2000/svg" viewBox="0 0 266 266"><style>.bg{fill:#F2F2F2;} .face{fill:#CECCCC;}</style><path class="bg" d="M0 0h266v266H0z"/><circle class="face eye" cx="93.5" cy="142.2" r="9.7"/><circle class="face eye" cx="172.6" cy="142.2" r="9.7"/><path class="face mouth" d="M96.5 168.3c10.4 9.1 22.8 14.4 36.5 14.4s26.1-5.3 36.5-14.4h-73z"/><path class="face" d="M133 53.1c44.1 0 79.9 35.8 79.9 79.9s-35.8 79.9-79.9 79.9-79.9-35.8-79.9-79.9S88.9 53.1 133 53.1m0-18.5c-54.3 0-98.4 44.1-98.4 98.4s44.1 98.4 98.4 98.4 98.4-44.1 98.4-98.4-43.9-98.4-98.4-98.4z"/></svg>
