<?xml version="1.0" encoding="utf-8"?>
<!-- Generator: Adobe Illustrator 19.0.1, SVG Export Plug-In . SVG Version: 6.00 Build 0)  -->
<!DOCTYPE svg PUBLIC "-//W3C//DTD SVG 1.1//EN" "http://www.w3.org/Graphics/SVG/1.1/DTD/svg11.dtd">
<svg version="1.1" id="Layer_1" xmlns="http://www.w3.org/2000/svg" xmlns:xlink="http://www.w3.org/1999/xlink" x="0px" y="0px"
	 viewBox="0 0 325.6 97.2" style="enable-background:new 0 0 325.6 97.2;" xml:space="preserve">
<style type="text/css">
	.st0{fill:#333333;}
	.st1{opacity:0.6;fill:#0DAA6C;}
	.st2{opacity:0.9;fill:#0DAA6C;}
	.st3{fill:none;stroke:#FFFFFF;stroke-width:3;stroke-miterlimit:10;}
</style>
<g>
	<path class="st0" d="M110.4,65l3.7-4.7c3.2,3.7,8.4,7,15.3,7c8.7,0,11.5-4.7,11.5-8.5c0-12.6-29-5.6-29-23
		c0-8.1,7.2-13.6,16.9-13.6c7.4,0,13.2,2.6,17.3,6.9l-3.7,4.5c-3.7-4.1-8.8-5.9-14.2-5.9c-5.8,0-10.1,3.2-10.1,7.8
		c0,11,29,4.7,29,23c0,7-4.8,14.4-18.1,14.4C120.7,72.7,114.4,69.5,110.4,65z"/>
	<path class="st0" d="M156,64.5V41.3h-5.9v-4.8h5.9v-9.7h5.6v9.7h7.2v4.8h-7.2v22c0,2.6,1.2,4.5,3.5,4.5c1.6,0,3-0.7,3.7-1.5
		l1.6,4.2c-1.4,1.3-3.4,2.3-6.5,2.3C158.6,72.7,156,69.7,156,64.5z"/>
	<path class="st0" d="M174.4,54.1c0-10.3,6.8-18.6,17.5-18.6s17.5,8.3,17.5,18.6c0,10.3-6.8,18.6-17.5,18.6S174.4,64.4,174.4,54.1z
		 M203.6,54.1c0-7.2-4.2-13.6-11.7-13.6c-7.6,0-11.7,6.5-11.7,13.6c0,7.3,4.2,13.7,11.7,13.7C199.5,67.8,203.6,61.4,203.6,54.1z"/>
	<path class="st0" d="M218.4,71.9V36.4h5.5v5.7c2.9-3.7,7-6.5,11.8-6.5v5.7c-0.7-0.1-1.3-0.1-2.1-0.1c-3.4,0-8.1,2.8-9.7,5.7v25.1
		H218.4z"/>
	<path class="st0" d="M241.7,27.7c0-2.1,1.7-3.7,3.7-3.7s3.7,1.7,3.7,3.7s-1.6,3.7-3.7,3.7S241.7,29.7,241.7,27.7z M242.6,71.9V36.4
		h5.5v35.4H242.6z"/>
	<path class="st0" d="M257.1,54.1c0-10.3,7.3-18.6,17.5-18.6c10.7,0,17,8.4,17,19v1.4h-28.6c0.4,6.7,5.1,12.3,12.7,12.3
		c4.1,0,8.1-1.6,11-4.5l2.6,3.6c-3.6,3.5-8.4,5.5-14.1,5.5C264.6,72.7,257.1,65.2,257.1,54.1z M274.5,40.1
		c-7.6,0-11.3,6.4-11.6,11.7h23.3C286,46.6,282.5,40.1,274.5,40.1z"/>
	<path class="st0" d="M297.4,67.2l2.8-4c2.3,2.7,6.8,5.1,11.7,5.1c5.4,0,8.4-2.6,8.4-6.1c0-8.6-21.9-3.3-21.9-16.4
		c0-5.6,4.7-10.2,13.1-10.2c6.1,0,10.3,2.3,13.1,5.1l-2.6,3.8c-2.1-2.6-5.9-4.5-10.6-4.5c-4.8,0-7.9,2.4-7.9,5.6
		c0,7.7,21.9,2.6,21.9,16.4c0,5.9-4.8,10.7-13.9,10.7C305.9,72.7,301,70.9,297.4,67.2z"/>
</g>
<polygon class="st1" points="0,73.4 39.2,97.2 19.6,61.5 "/>
<polygon class="st1" points="39.2,49.6 78.4,73.4 58.8,37.7 "/>
<polygon class="st1" points="0,25.8 19.6,61.5 39.2,49.6 "/>
<polygon class="st2" points="19.6,61.5 39.2,97.2 78.4,73.4 39.2,49.6 "/>
<polygon class="st1" points="78.4,23.8 39.2,0 58.8,35.7 "/>
<polygon class="st2" points="58.8,35.7 39.2,0 0,23.8 39.2,47.6 "/>
<polyline class="st3" points="0,73.4 39.2,97.2 0,23.8 39.2,47.6 78.4,23.8 "/>
</svg>
